<svg xmlns:xlink="http://www.w3.org/1999/xlink" xmlns="http://www.w3.org/2000/svg" class="mx-4 max-h-[42px] w-[100px] flex-shrink-0 lg:hidden" width="134"  height="35" ><defs><symbol xmlns="http://www.w3.org/2000/svg" id="adobe" fill="currentColor" viewBox="0 0 134 35"><path d="M15.5 0H1v35L15.5 0Zm10.3 0h14.6v35L25.8 0Zm-5.1 12.9L30 35h-6.1L21 28h-6.8l6.4-15.1Zm43.6 9.4 1.7 5h3.7c.1 0 .2 0 .1-.2L63 8.1c0-.2 0-.2-.2-.2h-4.1c-.2 0-.2 0-.2.2 0 1-.2 1.3-.3 1.6l-6.1 17.4c0 .2 0 .3.2.3h3c.2 0 .2 0 .3-.3l1.6-4.8h7.1ZM58.2 19l2.5-8.1 2.7 8.1h-5.2Zm20.5 8.7a14 14 0 0 0 5.6-1.2l.1-.2V6.4l-.2-.1h-3.3l-.1.2v6h-1.3c-5.2 0-8.4 3.4-8.4 7.7 0 5 3.3 7.5 7.6 7.5Zm2-3.3-1.7.2c-2.3 0-4.3-1.3-4.3-4.6 0-2.8 2-4.5 4.7-4.5.5 0 1 0 1.4.2v8.7Zm14.1-11.9c-4.5 0-7.3 3.4-7.3 7.6 0 3.8 2.2 7.6 7.2 7.6 4.2 0 7.1-3.1 7.1-7.7 0-4-2.5-7.5-7-7.5Zm-.2 3c2.5 0 3.6 2.1 3.6 4.6 0 3-1.6 4.6-3.4 4.6-2.3 0-3.6-2-3.6-4.7 0-2.8 1.4-4.5 3.4-4.5Zm10.6-9.2c-.2 0-.3 0-.3.2v20.3s.1.2.3.2c1.4.5 2.9.7 4.4.7 4.4 0 8.7-2.7 8.7-8.2 0-4-2.8-7-7-7-1 0-2 .1-2.7.4V6.5c0-.2-.1-.2-.3-.2h-3.1Zm9.4 13.5c0 3.3-2.2 4.9-4.7 4.9-.5 0-1 0-1.3-.2V16c.4-.2 1-.4 2-.4 2.4 0 4 1.5 4 4.3Zm15.7 1.1 3-.1c.2 0 .3-.1.3-.2l.1-1.9c0-2.8-1.7-6.2-6-6.2-4.5 0-7 3.6-7 7.7 0 3.7 2 7.5 7.3 7.5 2 0 3.3-.3 4.5-.9l.1-.3V24c0-.1 0-.1-.1 0-1.2.4-2.4.6-3.7.6-3 0-4.4-1.6-4.5-3.7h6Zm-6-2.6c.2-1.4 1.2-3 3.2-3 2.3 0 2.9 2 2.9 2.8v.2h-6.1Z"></path></symbol></defs><use href="#adobe"></use></svg>