<svg xmlns:xlink="http://www.w3.org/1999/xlink" xmlns="http://www.w3.org/2000/svg" class="mx-4 max-h-[42px] w-[100px] flex-shrink-0 lg:hidden" width="113"  height="34" ><defs><symbol xmlns="http://www.w3.org/2000/svg" id="amazon" fill="currentColor" viewBox="0 0 113 34"><path d="M70 26.6a43.9 43.9 0 0 1-53.9-3.9c-.6-.6 0-1.3.7-.9a59.6 59.6 0 0 0 52.3 3.3c1-.5 2 .7 1 1.5Z"></path><path d="M72.7 23.5c-.8-1.1-5.5-.5-7.6-.3-.7 0-.8-.5-.2-.9 3.8-2.6 10-1.8 10.6-1 .8 1-.1 7-3.7 10-.5.5-1 .2-.8-.4.8-2 2.6-6.4 1.7-7.4ZM65.2 3.7V1.1c0-.3.3-.6.7-.6h11.5c.3 0 .6.3.6.6v2.2c0 .4-.3.9-.8 1.7l-6 8.4c2.2 0 4.6.3 6.6 1.5.4.2.5.6.6 1v2.7c0 .4-.4.8-.9.6-3.5-1.9-8.2-2-12.1 0-.4.2-.8-.2-.8-.6V16c0-.4 0-1.1.4-1.8l7-9.8h-6a.7.7 0 0 1-.7-.7Zm-41.8 16h-3.5a.7.7 0 0 1-.6-.6v-18c0-.3.3-.5.6-.5h3.3c.3 0 .6.2.6.5v2.4c1-2.3 2.5-3.3 4.7-3.3s3.5 1 4.5 3.3A5 5 0 0 1 37.8.2a5 5 0 0 1 4 2c1.2 1.4 1 3.6 1 5.5v11.4c0 .3-.4.6-.7.6h-3.5a.7.7 0 0 1-.6-.6V9.6l-.1-3.4c-.3-1.2-1-1.5-2-1.5S34 5.2 33.6 6c-.3 1-.3 2.4-.3 3.5V19c0 .3-.3.6-.7.6h-3.5a.7.7 0 0 1-.6-.6V9.6c0-2 .3-5-2.1-5-2.6 0-2.5 2.9-2.5 5V19c0 .3-.3.6-.6.6ZM88 .2c5 0 7.9 4.4 7.9 10 0 5.5-3.1 9.9-8 9.9-5 0-7.9-4.5-7.9-10C80 4.5 83 0 88 0Zm0 3.6c-2.6 0-2.8 3.5-2.8 5.7s0 6.9 2.7 6.9 2.8-3.8 2.8-6c0-1.6 0-3.4-.5-4.8-.4-1.3-1.2-1.8-2.3-1.8Zm14.6 15.9h-3.5a.7.7 0 0 1-.6-.6V1c0-.3.3-.5.7-.5h3.2c.3 0 .6.2.6.5v2.7h.1c1-2.5 2.3-3.6 4.8-3.6 1.5 0 3 .5 4 2s1 4 1 5.7V19c0 .4-.4.6-.7.6h-3.5a.7.7 0 0 1-.6-.6V9.4c0-2 .2-4.8-2.2-4.8-.9 0-1.7.6-2 1.4a8 8 0 0 0-.6 3.4v9.7c0 .3-.3.6-.7.6ZM56 11.1v-.7c-2.4 0-5.1.5-5.1 3.5 0 1.5.8 2.5 2.1 2.5 1 0 1.9-.6 2.4-1.5.7-1.3.7-2.4.7-3.8Zm3.6 8.6c-.2.2-.6.2-.8 0-1.2-1-1.4-1.4-2-2.3-2 2-3.3 2.6-5.8 2.6-3 0-5.2-1.9-5.2-5.5a6 6 0 0 1 3.7-5.7c2-.8 4.6-1 6.6-1.2V7c0-.8 0-1.8-.4-2.5-.5-.6-1.3-.9-2-.9-1.3 0-2.5.7-2.8 2.1 0 .3-.3.6-.6.6L46.9 6c-.3 0-.6-.3-.5-.8.8-4 4.5-5.3 7.8-5.3 1.7 0 4 .5 5.3 1.7 1.7 1.6 1.5 3.7 1.5 6v5.5c0 1.6.7 2.3 1.3 3.2.2.3.3.7 0 1l-2.7 2.3Zm-49.3-8.6v-.7c-2.5 0-5.2.5-5.2 3.5 0 1.5.8 2.5 2.1 2.5 1 0 1.9-.6 2.5-1.5.6-1.3.6-2.4.6-3.8Zm3.5 8.6c-.2.2-.5.2-.8 0-1.2-1-1.4-1.4-2-2.3-2 2-3.3 2.6-5.8 2.6C2.3 20 0 18 0 14.5a6 6 0 0 1 3.7-5.7c2-.8 4.6-1 6.6-1.2V7c0-.8 0-1.8-.4-2.5-.4-.6-1.3-.9-2-.9-1.3 0-2.5.7-2.8 2.1 0 .3-.3.6-.6.6L1.1 6c-.3 0-.6-.3-.5-.8.8-4 4.5-5.3 7.8-5.3 1.7 0 4 .5 5.3 1.7 1.7 1.6 1.5 3.7 1.5 6v5.5c0 1.6.7 2.3 1.3 3.2.3.3.3.7 0 1l-2.7 2.3Z"></path></symbol></defs><use href="#amazon"></use></svg>