<svg xmlns:xlink="http://www.w3.org/1999/xlink" xmlns="http://www.w3.org/2000/svg" class="mx-4 max-h-[42px] w-[100px] flex-shrink-0 lg:w-auto lg:flex-shrink" width="106"  height="36" ><defs><symbol xmlns="http://www.w3.org/2000/svg" id="apple" fill="currentColor" viewBox="0 0 106 36"><path d="M24.6 19.1c0-4.5 3.7-6.7 3.9-6.8a8.4 8.4 0 0 0-6.6-3.6c-2.8-.3-5.5 1.7-7 1.7-1.3 0-3.5-1.7-5.9-1.6-3 0-5.8 1.8-7.4 4.5C-1.6 18.8.8 27 3.9 31.4c1.5 2.2 3.3 4.7 5.6 4.6 2.3 0 3.2-1.5 6-1.5 2.7 0 3.5 1.5 5.9 1.5 2.4-.1 4-2.3 5.5-4.5 1.7-2.5 2.4-5 2.5-5.1 0 0-4.8-1.8-4.8-7.3ZM20 5.8A8 8 0 0 0 22 0a8 8 0 0 0-5.3 2.7 7.5 7.5 0 0 0-2 5.6c2.1.2 4.2-1 5.4-2.5m20.3 17.8-2 6.3h-2.7l6.8-20h3.1l6.9 20h-2.8l-2.1-6.3h-7.2Zm6.6-2-2-5.8-1-3.7-1 3.7-2 5.8h6Zm7.5-1.4-.1-4.7h2.3L57 18c1-1.8 2.8-2.8 5.1-2.8 3.5 0 6.1 3 6.1 7.3 0 5.2-3.1 7.8-6.5 7.8a5 5 0 0 1-4.4-2.3H57v7.8h-2.6V20.2Zm2.6 3.9.1 1a4 4 0 0 0 4 3.1c2.7 0 4.3-2.3 4.3-5.6 0-2.9-1.5-5.3-4.3-5.3a4.2 4.2 0 0 0-4 3.2v3.6H57Zm13.8-3.9-.2-4.7h2.4l.1 2.5a5.7 5.7 0 0 1 5.2-2.8c3.5 0 6.1 3 6.1 7.3 0 5.2-3.2 7.8-6.6 7.8a5 5 0 0 1-4.4-2.3v7.8h-2.6V20.2Zm2.6 3.9v1a4 4 0 0 0 4 3.1c2.8 0 4.4-2.3 4.4-5.6 0-2.9-1.5-5.3-4.3-5.3a4.2 4.2 0 0 0-4 3.2l-.1 1v2.6ZM87.2 8.8h2.6v21.1h-2.6V8.8Zm8 14.4c0 3.5 2.2 5 4.8 5 2 0 3-.3 4-.7l.5 1.8c-1 .4-2.5 1-4.8 1-4.4 0-7.1-3-7.1-7.3 0-4.4 2.6-7.8 6.8-7.8 4.7 0 6 4.1 6 6.8l-.2 1.2h-10Zm7.6-1.9c0-1.7-.7-4.2-3.6-4.2-2.7 0-3.9 2.4-4 4.2h7.6Z"></path></symbol></defs><use href="#apple"></use></svg>