<svg xmlns:xlink="http://www.w3.org/1999/xlink" viewBox="0 0 168 268" class="aspect-[0.64] h-auto w-12" fill="currentColor" xmlns="http://www.w3.org/2000/svg" width="168"  height="268" ><path d="M41.78 157.47L28.15 157.5L0.829987 117.95L28.5 76.5H52.83L25.17 116.79L52.83 157.5L41.78 157.47Z"></path><path d="M126.22 157.47L139.85 157.5L167.17 117.95L139.5 76.5H115.17L142.83 116.79L115.17 157.5L126.22 157.47Z"></path><path d="M99.7 136.57C96.92 140.75 92.9 143.39 88.41 143.39C80.03 143.39 73.23 134.22 73.23 122.91C73.23 111.6 80.03 102.43 88.41 102.43C92.81 102.43 96.77 104.97 99.54 109.01L113.02 99.59C106.98 90.99 97.74 85.48 87.36 85.48C69.16 85.48 54.41 102.39 54.41 123.25C54.41 144.11 69.16 161.02 87.36 161.02C98.63 161.02 108.57 154.53 114.51 144.63L99.7 136.57Z"></path><path d="M84.83 0.5C67.16 0.5 52.83 17.39 52.83 38.23C52.83 59.07 67.16 75.96 84.83 75.96C102.5 75.96 116.83 59.07 116.83 38.23C116.83 17.39 102.51 0.5 84.83 0.5ZM85.15 59.66C77.26 59.66 70.87 50.35 70.87 38.88C70.87 27.41 77.26 18.1 85.15 18.1C93.04 18.1 99.43 27.41 99.43 38.88C99.43 50.35 93.04 59.66 85.15 59.66Z"></path><path d="M74.54 171.5H97.57L124.97 267.5H103.1L86.29 199.27L68.79 267.5H47.83L74.54 171.5Z"></path></svg>