<svg xmlns:xlink="http://www.w3.org/1999/xlink" xmlns="http://www.w3.org/2000/svg" class="mx-4 max-h-[42px] w-[100px] flex-shrink-0 lg:w-auto lg:flex-shrink" width="103"  height="33" ><defs><symbol xmlns="http://www.w3.org/2000/svg" id="google" fill="currentColor" viewBox="0 0 103 33"><path d="M13 0h1c3 0 6.2 1.3 8.4 3.5L20 6A9.4 9.4 0 0 0 8.4 5a9.4 9.4 0 0 0-2 13.8c1.7 2 4.2 3.2 6.7 3.3a9 9 0 0 0 6.7-2.3c1.4-1.1 2-3 2.2-4.7h-8.5v-3.4h12c.6 3.7-.3 8-3.2 10.6-2 2-4.6 3-7.3 3.2a13.1 13.1 0 0 1-13.8-8.4A12.4 12.4 0 0 1 6 2.5C7.9 1 10.5.2 13 0Zm68.7.9h3.7V25h-3.7V.9ZM33.6 9.3c2.3-.4 4.7 0 6.6 1.4a8.3 8.3 0 0 1 1.6 11.9 8.4 8.4 0 0 1-7 3 8.4 8.4 0 0 1-6.3-3.3 8.4 8.4 0 0 1-1.2-7.7 8.1 8.1 0 0 1 6.3-5.3Zm.5 3.2c-1 .2-1.8.8-2.4 1.5-1.6 2-1.5 5.2.3 7a4.6 4.6 0 0 0 7.2-1c1.2-2 .9-4.9-.9-6.4a4.7 4.7 0 0 0-4.2-1.1Zm17.7-3.2c2.5-.5 5.4.2 7.3 2 3.2 2.8 3.5 8 .8 11.3a8.4 8.4 0 0 1-6.9 3 8.3 8.3 0 0 1-6.4-3.3 8.5 8.5 0 0 1-1-7.9 8.1 8.1 0 0 1 6.2-5.1Zm.5 3.2c-1 .2-1.8.8-2.4 1.5-1.7 2-1.6 5 .2 7a4.6 4.6 0 0 0 7.3-1c1.1-2 .8-4.9-1-6.4a4.6 4.6 0 0 0-4.1-1.1Z"></path><path d="M67.2 10.3a7 7 0 0 1 6.7-.5c.6.2 1.2.7 1.7 1.2V9.6h3.5v15c0 2.3-.6 4.6-2.3 6.3a8.2 8.2 0 0 1-13-2.7l3.2-1.4a4.7 4.7 0 0 0 3.3 2.9c1.5.2 3.3-.1 4.3-1.4 1-1.3 1-3 1-4.6a6 6 0 0 1-2.8 1.7c-2.4.6-5-.2-6.8-1.8a8.3 8.3 0 0 1 1.2-13.3Zm3.5 2.1A5 5 0 0 0 68 14a5.4 5.4 0 0 0 0 6.8c1 1 2.4 1.7 3.9 1.5 1.3-.1 2.6-1 3.2-2.1 1.2-2 1-4.7-.5-6.4-1-1-2.5-1.6-3.9-1.4Zm19.1-1.3c2-1.9 5.2-2.5 7.8-1.5 2.5 1 4.1 3.3 5 5.7l-11.2 4.6c.5 1 1.3 1.8 2.4 2.2a4.8 4.8 0 0 0 5.8-2l2.8 1.8a8.3 8.3 0 0 1-6 3.6c-2.7.4-5.5-.7-7.3-2.7a8.6 8.6 0 0 1 .7-11.7Zm1.8 3.2c-.6.8-.8 1.8-.8 2.8l7.5-3a3 3 0 0 0-2.5-1.7c-1.6-.3-3.3.5-4.2 1.9Z"></path></symbol></defs><use href="#google"></use></svg>