<svg xmlns:xlink="http://www.w3.org/1999/xlink" xmlns="http://www.w3.org/2000/svg" class="mx-4 max-h-[42px] w-[100px] flex-shrink-0 lg:w-auto lg:flex-shrink" width="115"  height="23" ><defs><symbol xmlns="http://www.w3.org/2000/svg" id="meta" fill="currentColor" viewBox="0 0 115 23"><path d="M42.4.7h4.3L54.1 14 61.5.7h4.2v21.9h-3.5V5.8l-6.5 11.6h-3.3L45.9 5.8v16.8h-3.5V.7ZM77 23c-1.6 0-3-.4-4.2-1.1a7.6 7.6 0 0 1-3-3 10.5 10.5 0 0 1 0-8.9 7.6 7.6 0 0 1 7-4c1.6 0 2.9.3 4 1s2 1.8 2.6 3.1c.6 1.3 1 2.9 1 4.7v1h-12c.1 1.3.7 2.3 1.5 3 .9.8 2 1.2 3.3 1.2 1 0 2-.1 2.7-.5a7 7 0 0 0 2.2-1.4l1.8 2.3a9.8 9.8 0 0 1-6.8 2.6Zm2.7-13a3.9 3.9 0 0 0-3-1.1 4 4 0 0 0-2.9 1.1c-.8.8-1.3 1.8-1.5 3.1H81a4.9 4.9 0 0 0-1.2-3Zm8.9-.8h-3.3V6.3h3.3V1.5H92v4.8h5v2.9h-5v7.3c0 1.2.2 2.1.6 2.6.4.5 1.1.8 2.2.8a10 10 0 0 0 2.1-.2v2.9a9.6 9.6 0 0 1-2.8.4c-3.7 0-5.5-2-5.5-6V9.1Zm26.1 13.4h-3.4v-2.3a6 6 0 0 1-2.2 2c-1 .5-2 .7-3.2.7a7 7 0 0 1-3.8-1.1c-1-.7-2-1.8-2.6-3a10.6 10.6 0 0 1 0-8.9 7.1 7.1 0 0 1 6.6-4.1 6 6 0 0 1 3 .7 6 6 0 0 1 2.2 1.8V6.3h3.4v16.3ZM111.3 12a4.6 4.6 0 0 0-4.5-3c-1.4 0-2.6.5-3.5 1.5-.8 1-1.3 2.3-1.3 4 0 1.6.5 3 1.3 4 .8.9 2 1.4 3.4 1.4 1 0 2-.3 2.8-.8.8-.6 1.4-1.3 1.8-2.2V12Zm-107 3.2c0 1.3.2 2.3.6 3 .5.7 1.3 1 2 1 1 0 1.9-.2 3.6-2.6 1.4-1.9 3-4.5 4.1-6.2l1.9-2.9c1.2-2 2.7-4.1 4.4-5.6A6.8 6.8 0 0 1 25.3 0c2.6 0 5 1.5 6.8 4.2 2 3 3 6.9 3 10.8 0 2.3-.4 4-1.2 5.4a5.2 5.2 0 0 1-4.7 2.6v-3.7c2.1 0 2.6-2 2.6-4.2 0-3.2-.7-6.7-2.3-9.3C28.3 4.1 26.8 3 25.2 3c-1.8 0-3.3 1.3-4.9 3.7l-2.7 4.6-1.1 2a48.7 48.7 0 0 1-3.9 6.2C10.7 22 9.1 23 7 23a5.6 5.6 0 0 1-5.2-2.8A10 10 0 0 1 .5 15l3.8.2Z"></path><path d="M3.5 4.5C5.2 1.8 7.7 0 10.5 0c1.6 0 3.3.5 5 1.9 1.8 1.5 3.8 4 6.3 8.1l1 1.5c2 3.6 3.3 5.4 4 6.3 1 1.1 1.6 1.5 2.4 1.5 2.1 0 2.6-2 2.6-4.2l3.3-.1c0 2.3-.4 4-1.2 5.4a5.2 5.2 0 0 1-4.7 2.6c-1.5 0-3-.3-4.4-1.8-1.2-1-2.5-3-3.6-4.7l-3-5.2a29 29 0 0 0-4-5.5c-.8-.9-2-2-3.8-2-1.4 0-2.7 1-3.7 2.6l-3.2-2Z"></path><path d="M10.4 3.8c-1.4 0-2.7 1-3.7 2.6a16.7 16.7 0 0 0-2.4 8.8c0 1.3.2 2.3.6 3l-3.2 2A10 10 0 0 1 .5 15c0-3.7 1-7.5 3-10.5C5.2 1.8 7.7 0 10.5 0v3.8Z"></path></symbol></defs><use href="#meta"></use></svg>