<svg xmlns:xlink="http://www.w3.org/1999/xlink" xmlns="http://www.w3.org/2000/svg" class="mx-4 max-h-[42px] w-[100px] flex-shrink-0 lg:w-auto lg:flex-shrink" width="160"  height="34" ><defs><symbol xmlns="http://www.w3.org/2000/svg" id="microsoft" fill="currentColor" viewBox="0 0 160 34"><path d="M66.3 6.8v20.4h-3.5v-16l-6.4 16H54l-6.4-16v16h-3.4V6.8h5.1l5.9 15.1h.1l6.2-15.1h4.8Zm3 1.6c0-.6.1-1 .5-1.5a3 3 0 0 1 1.5-.5 2 2 0 0 1 1.5.5 2 2 0 0 1 0 2.9c-.4.4-.9.5-1.5.5a2 2 0 0 1-1.5-.5c-.3-.4-.6-1-.6-1.4Zm3.8 4.2v14.6h-3.5V12.6h3.5Zm10.4 12.1c.5 0 1-.1 1.7-.4.6-.2 1.2-.5 1.7-1v3.3a6 6 0 0 1-1.9.7l-2.3.2a7 7 0 0 1-7.3-7.2c0-2.4.7-4.3 2-5.8a8 8 0 0 1 6-2.3 8.7 8.7 0 0 1 3.4.8v3.3c-.5-.3-1-.7-1.6-.9-.5-.1-1.1-.3-1.7-.3-1.3 0-2.4.4-3.3 1.3A5 5 0 0 0 79 20c0 1.5.4 2.7 1.2 3.5.8.8 2 1.2 3.3 1.2Zm13.2-12.4a3.8 3.8 0 0 1 1.3.2V16l-.8-.4-1.3-.2c-.8 0-1.6.4-2.1 1.1a5 5 0 0 0-1 3.3v7.4h-3.4V12.6H93v2.3c.4-.8.8-1.4 1.4-2a6 6 0 0 1 2.4-.6Zm1.5 7.8a8 8 0 0 1 2-5.7 7.5 7.5 0 0 1 5.7-2.2 7 7 0 0 1 5.3 2 8 8 0 0 1 2 5.6 8 8 0 0 1-2 5.7 7.4 7.4 0 0 1-5.7 2c-2.2 0-4-.6-5.3-2a7.6 7.6 0 0 1-2-5.4Zm3.6-.1c0 1.5.3 2.7 1 3.5.7.8 1.7 1.2 3 1.2 1.2 0 2.2-.4 2.9-1.2.6-.8 1-2 1-3.6s-.4-2.8-1-3.6a3.5 3.5 0 0 0-2.9-1.2c-1.3 0-2.2.4-2.9 1.2-.8 1-1.1 2.1-1.1 3.7Zm16.5-3.6c0 .5.1 1 .5 1.2.3.3 1 .6 2 1 1.4.6 2.4 1.2 3 1.9.5.7.8 1.5.8 2.5a4 4 0 0 1-1.6 3.3c-1 .9-2.5 1.2-4.3 1.2a11.2 11.2 0 0 1-4-.8v-3.4c.7.5 1.4.8 2 1 .8.3 1.5.4 2 .4.8 0 1.4 0 1.8-.3.3-.2.5-.6.5-1 0-.5-.2-1-.5-1.3l-2.2-1.1a6.5 6.5 0 0 1-2.7-1.8 4 4 0 0 1-.8-2.6 4 4 0 0 1 1.6-3.2c1-.9 2.4-1.3 4-1.3a19 19 0 0 1 3.3.6v3.4l-1.6-.8a5 5 0 0 0-1.8-.4 3 3 0 0 0-1.5.4c-.3.3-.5.7-.5 1.1Zm7.7 3.7a8 8 0 0 1 2-5.7 7.5 7.5 0 0 1 5.7-2.2 7 7 0 0 1 5.4 2c1.2 1.4 2 3.3 2 5.6a8 8 0 0 1-2.1 5.7 7.4 7.4 0 0 1-5.6 2 7 7 0 0 1-5.4-2 7.8 7.8 0 0 1-2-5.4Zm3.6-.1c0 1.5.4 2.7 1 3.5a4 4 0 0 0 3 1.2c1.3 0 2.3-.4 3-1.2.6-.8 1-2 1-3.6s-.4-2.8-1-3.6a3.5 3.5 0 0 0-3-1.2c-1.2 0-2.1.4-2.8 1.2-.8 1-1.2 2.1-1.2 3.7Zm22.9-4.6h-5.2v11.8h-3.5V15.4h-2.4v-2.8h2.4v-2c0-1.6.6-2.9 1.5-3.8 1-1 2.3-1.5 3.9-1.5h1.1l.9.2v3l-.7-.2-1-.2c-.7 0-1.2.3-1.6.7-.4.4-.6 1.1-.6 2v1.7h5.2V9.2l3.4-1v4.3h3.5v2.8H156v6.9c0 .9.2 1.5.5 1.9.3.4.8.6 1.6.6l.7-.2c.3 0 .5-.2.7-.3V27c-.3.2-.6.2-1.1.3l-1.5.2c-1.5 0-2.6-.4-3.3-1.1-.7-.8-1-2-1-3.5v-7.5ZM16.1 0H0v16.1h16.1V0ZM34 0H17.8v16.1H34V0ZM16.1 17.9H0V34h16.1V17.9Zm17.9 0H17.8V34H34V17.9Z"></path></symbol></defs><use href="#microsoft"></use></svg>