<svg xmlns:xlink="http://www.w3.org/1999/xlink" xmlns="http://www.w3.org/2000/svg" class="mx-4 max-h-[42px] w-[100px] flex-shrink-0 lg:hidden" width="126"  height="35" ><defs><symbol xmlns="http://www.w3.org/2000/svg" id="netflix" fill="currentColor" viewBox="0 0 126 35"><path d="M83.8 0v25.5l9.1.5v5.4a434 434 0 0 0-14.4-.7V0h5.3ZM126 0l-7 16.6 7 18.4-6-.8-4-10.4-3.9 9.4-5.5-.6 6.7-16.1L107.1 0h5.8l3.4 9.2 3.9-9.2h5.8ZM60.3 30.4V0h14.8v5.5h-9.5v7h7.2V18h-7.2v12.5h-5.3Zm-19.8-25V0h16.4v5.5h-5.5v25l-5.3.2V5.5h-5.6Zm-18.1 27V0H37v5.5h-9.4v7.3h7.1v5.4h-7.1v8.2l9.4-.6v5.4c-5 .3-9.8.6-14.7 1.1ZM12 19.8V0h5.3v32.8l-5.8.7-6.2-18.3v19L0 35V0h5l7 19.8Zm85.3 12V0h5.3v32.2l-5.3-.4Z"></path></symbol></defs><use href="#netflix"></use></svg>