<svg xmlns:xlink="http://www.w3.org/1999/xlink" xmlns="http://www.w3.org/2000/svg" class="mx-4 max-h-[42px] w-[100px] flex-shrink-0 lg:hidden" width="154"  height="54" ><defs><symbol xmlns="http://www.w3.org/2000/svg" id="notion" fill="currentColor" viewBox="0 0 154 54"><path d="M32.8.1 3.2 2.3C.8 2.5 0 4.1 0 6v32.8c0 1.4.5 2.7 1.8 4.4l7 9.1c1 1.5 2.1 1.8 4.3 1.7l34.3-2.1c3-.2 3.8-1.6 3.8-3.9V11.1c0-1.1-.5-1.5-1.9-2.5l-.2-.2-9.5-6.7C37.4 0 36.4-.2 32.8.1Zm-19 10.4c-2.8.2-3.4.3-5-1l-4-3.3c-.4-.4-.2-1 .8-1L34 3a6 6 0 0 1 4.6 1.3L43.5 8c.2.1.7.7 0 .7l-29.3 1.8H14Zm-3.2 37.2V16.4c0-1.4.4-2 1.6-2.1l33.8-2c1.1-.1 1.6.6 1.6 2v31c0 1.4-.2 2.6-2 2.7l-32.3 1.9c-1.9 0-2.7-.5-2.7-2.2ZM42.4 18c.2 1 0 1.9-.9 2l-1.6.3v23a8 8 0 0 1-3.6 1.2c-1.6 0-2-.5-3.3-2L22.8 26.3V42l3.2.7s0 2-2.6 2l-7.1.4c-.2-.5 0-1.5.7-1.7l1.9-.5V22.2l-2.6-.2c-.2-1 .3-2.3 1.8-2.5l7.6-.5 10.6 16.4V20.9l-2.7-.3c-.2-1.2.6-2 1.7-2.1l7.1-.4Zm31.4 20.2V24h.3l10.1 14.3h3.2v-21H84v14.3h-.3L73.5 17.3h-3.3v21h3.6Zm23.7.3c4.7 0 7.5-3.1 7.5-8.3 0-5.1-2.8-8.2-7.5-8.2s-7.6 3.1-7.6 8.2c0 5.2 2.9 8.3 7.6 8.3Zm0-3c-2.5 0-4-2-4-5.3s1.5-5.2 4-5.2c2.4 0 3.9 2 3.9 5.2 0 3.3-1.4 5.3-4 5.3Zm10.8-17.1v4h-2.5v2.9h2.5V34c0 3 1.4 4.3 5 4.3l1.9-.1v-2.9l-1.2.1c-1.5 0-2.2-.7-2.2-2.3v-7.7h3.4v-3h-3.4v-3.9h-3.5Zm9 19.8h3.6v-16h-3.6v16Zm1.8-18.5c1.2 0 2.1-1 2.1-2.2 0-1.2-1-2.2-2.1-2.2-1.2 0-2.1 1-2.1 2.2 0 1.2 1 2.2 2 2.2Zm11.5 18.8c4.7 0 7.5-3.1 7.5-8.3 0-5.1-2.8-8.2-7.5-8.2s-7.6 3.1-7.6 8.2c0 5.2 2.9 8.3 7.6 8.3Zm0-3c-2.5 0-4-2-4-5.3s1.5-5.2 4-5.2 3.9 2 3.9 5.2c0 3.3-1.4 5.3-4 5.3Zm9.7 2.7h3.5V29c0-2.3 1.3-3.8 3.5-3.8 2.1 0 3.1 1.2 3.1 3.6v9.5h3.6V28c0-3.8-2-6-5.4-6-2.4 0-4 1.2-4.7 3h-.2v-2.6h-3.4v15.9Z"></path></symbol></defs><use href="#notion"></use></svg>